{
  "accessors": [
    {
      "bufferView": 2,
      "componentType": 5126,
      "count": 9716,
      "max": [
        1.221459984779358,
        0.8029459714889526,
        3.500998020172119
      ],
      "min": [
        -1.7523430585861206,
        -0.7139089703559875,
        -0.054885998368263245
      ],
      "type": "VEC3"
    },
    {
      "bufferView": 2,
      "byteOffset": 116592,
      "componentType": 5126,
      "count": 9716,
      "max": [
        0.9999335408210754,
        0.9999551177024841,
        0.999967098236084
      ],
      "min": [
        -0.9992091059684753,
        -0.9999808669090271,
        -0.9999906420707703
      ],
      "type": "VEC3"
    },
    {
      "bufferView": 1,
      "componentType": 5126,
      "count": 9716,
      "max": [
        0.9878990054130554,
        0.8301590085029602
      ],
      "min": [
        0.6085039973258972,
        0.015971999615430832
      ],
      "type": "VEC2"
    },
    {
      "bufferView": 0,
      "componentType": 5125,
      "count": 51912,
      "type": "SCALAR"
    },
    {
      "bufferView": 2,
      "byteOffset": 233184,
      "componentType": 5126,
      "count": 5032,
      "max": [
        1.7283610105514526,
        0.8503810167312622,
        3.442836046218872
      ],
      "min": [
        -1.919234037399292,
        -0.7829689979553223,
        -0.2852889895439148
      ],
      "type": "VEC3"
    },
    {
      "bufferView": 2,
      "byteOffset": 293568,
      "componentType": 5126,
      "count": 5032,
      "max": [
        0.9999978542327881,
        0.9995043873786926,
        0.9999991059303284
      ],
      "min": [
        -0.9999984502792358,
        -0.9994197487831116,
        -0.999976634979248
      ],
      "type": "VEC3"
    },
    {
      "bufferView": 1,
      "byteOffset": 77728,
      "componentType": 5126,
      "count": 5032,
      "max": [
        0.9878990054130554,
        0.8301590085029602
      ],
      "min": [
        0.6085039973258972,
        0.015971999615430832
      ],
      "type": "VEC2"
    },
    {
      "bufferView": 0,
      "byteOffset": 207648,
      "componentType": 5125,
      "count": 26472,
      "type": "SCALAR"
    },
    {
      "bufferView": 2,
      "byteOffset": 353952,
      "componentType": 5126,
      "count": 166,
      "max": [
        0.793267011642456,
        0.9174339771270752,
        0.1658650040626526
      ],
      "min": [
        -0.8712360262870789,
        -0.7470700144767761,
        0.1420689970254898
      ],
      "type": "VEC3"
    },
    {
      "bufferView": 2,
      "byteOffset": 355944,
      "componentType": 5126,
      "count": 166,
      "max": [
        0.9983490109443665,
        0.9983493685722351,
        1.0
      ],
      "min": [
        -0.9983495473861694,
        -0.9983493685722351,
        -1.0
      ],
      "type": "VEC3"
    },
    {
      "bufferView": 1,
      "byteOffset": 117984,
      "componentType": 5126,
      "count": 166,
      "max": [
        0.65625,
        1.0
      ],
      "min": [
        0.34375,
        -0.0
      ],
      "type": "VEC2"
    },
    {
      "bufferView": 0,
      "byteOffset": 313536,
      "componentType": 5125,
      "count": 720,
      "type": "SCALAR"
    },
    {
      "bufferView": 2,
      "byteOffset": 357936,
      "componentType": 5126,
      "count": 9716,
      "max": [
        1.7205259799957275,
        0.8470860123634338,
        3.436263084411621
      ],
      "min": [
        -1.9140219688415527,
        -0.7607409954071045,
        -0.28139999508857727
      ],
      "type": "VEC3"
    },
    {
      "bufferView": 2,
      "byteOffset": 474528,
      "componentType": 5126,
      "count": 9716,
      "max": [
        0.9999984502792358,
        0.9999808669090271,
        0.9999906420707703
      ],
      "min": [
        -0.9999978542327881,
        -0.9995043873786926,
        -0.9999896287918091
      ],
      "type": "VEC3"
    },
    {
      "bufferView": 1,
      "byteOffset": 119312,
      "componentType": 5126,
      "count": 9716,
      "max": [
        0.9878990054130554,
        0.8301590085029602
      ],
      "min": [
        0.6085039973258972,
        0.015971999615430832
      ],
      "type": "VEC2"
    },
    {
      "bufferView": 0,
      "byteOffset": 316416,
      "componentType": 5125,
      "count": 51912,
      "type": "SCALAR"
    },
    {
      "bufferView": 2,
      "byteOffset": 591120,
      "componentType": 5126,
      "count": 5031,
      "max": [
        1.5486550331115723,
        0.8231989741325378,
        3.4943840503692627
      ],
      "min": [
        -1.7306150197982788,
        -0.7776020169258118,
        -0.1916780024766922
      ],
      "type": "VEC3"
    },
    {
      "bufferView": 2,
      "byteOffset": 651492,
      "componentType": 5126,
      "count": 5031,
      "max": [
        0.9999984502792358,
        0.9995023608207703,
        0.9999772310256958
      ],
      "min": [
        -0.9999335408210754,
        -0.9999551177024841,
        -0.9999991059303284
      ],
      "type": "VEC3"
    },
    {
      "bufferView": 1,
      "byteOffset": 197040,
      "componentType": 5126,
      "count": 5031,
      "max": [
        0.9878990054130554,
        0.8301590085029602
      ],
      "min": [
        0.6085039973258972,
        0.015971999615430832
      ],
      "type": "VEC2"
    },
    {
      "bufferView": 0,
      "byteOffset": 524064,
      "componentType": 5125,
      "count": 26472,
      "type": "SCALAR"
    },
    {
      "bufferView": 2,
      "byteOffset": 711864,
      "componentType": 5126,
      "count": 3802,
      "max": [
        1.1198300123214722,
        1.243996024131775,
        3.5743069648742676
      ],
      "min": [
        -1.2410190105438232,
        -1.073632001876831,
        -0.02370299957692623
      ],
      "type": "VEC3"
    },
    {
      "bufferView": 2,
      "byteOffset": 757488,
      "componentType": 5126,
      "count": 3802,
      "max": [
        0.9997178912162781,
        0.9997541308403015,
        1.0
      ],
      "min": [
        -0.9992016553878784,
        -0.9997513294219971,
        -1.0
      ],
      "type": "VEC3"
    },
    {
      "bufferView": 1,
      "byteOffset": 237288,
      "componentType": 5126,
      "count": 3802,
      "max": [
        0.9838600158691406,
        0.9449970126152039
      ],
      "min": [
        0.013491000048816204,
        0.006442999932914972
      ],
      "type": "VEC2"
    },
    {
      "bufferView": 0,
      "byteOffset": 629952,
      "componentType": 5125,
      "count": 20400,
      "type": "SCALAR"
    },
    {
      "bufferView": 2,
      "byteOffset": 803112,
      "componentType": 5126,
      "count": 3802,
      "max": [
        1.1026320457458496,
        1.2267980575561523,
        3.561305046081543
      ],
      "min": [
        -1.2287060022354126,
        -1.0564340353012085,
        0.0
      ],
      "type": "VEC3"
    },
    {
      "bufferView": 2,
      "byteOffset": 848736,
      "componentType": 5126,
      "count": 3802,
      "max": [
        0.9998641014099121,
        0.9999831318855286,
        1.0
      ],
      "min": [
        -0.999201238155365,
        -0.9999831318855286,
        -1.0
      ],
      "type": "VEC3"
    },
    {
      "bufferView": 1,
      "byteOffset": 267704,
      "componentType": 5126,
      "count": 3802,
      "max": [
        0.9838600158691406,
        0.9449970126152039
      ],
      "min": [
        0.013491000048816204,
        0.006442999932914972
      ],
      "type": "VEC2"
    },
    {
      "bufferView": 0,
      "byteOffset": 711552,
      "componentType": 5125,
      "count": 20400,
      "type": "SCALAR"
    }
  ],
  "asset": {
    "extras": {
      "author": "Helen (https://sketchfab.com/helen_k)",
      "license": "CC-BY-4.0 (http://creativecommons.org/licenses/by/4.0/)",
      "source": "https://sketchfab.com/3d-models/jar-of-hearts-678bc5e8d88240678e929391e94d593a",
      "title": "Jar of Hearts"
    },
    "generator": "Sketchfab-12.67.0",
    "version": "2.0"
  },
  "bufferViews": [
    {
      "buffer": 0,
      "byteLength": 793152,
      "name": "floatBufferViews",
      "target": 34963
    },
    {
      "buffer": 0,
      "byteLength": 298120,
      "byteOffset": 793152,
      "byteStride": 8,
      "name": "floatBufferViews",
      "target": 34962
    },
    {
      "buffer": 0,
      "byteLength": 894360,
      "byteOffset": 1091272,
      "byteStride": 12,
      "name": "floatBufferViews",
      "target": 34962
    }
  ],
  "buffers": [
    {
      "byteLength": 1985632,
      "uri": "scene.bin"
    }
  ],
  "extensionsUsed": [
    "KHR_materials_unlit"
  ],
  "images": [
    {
      "uri": "textures/lambert2SG_baseColor.png"
    }
  ],
  "materials": [
    {
      "extensions": {
        "KHR_materials_unlit": {}
      },
      "name": "Heart_UVlambert2SG",
      "pbrMetallicRoughness": {
        "baseColorFactor": [
          0.0,
          0.0,
          0.0,
          1.0
        ],
        "metallicFactor": 0.0
      }
    },
    {
      "doubleSided": true,
      "emissiveFactor": [
        0.9877885389761538,
        0.3647605105062788,
        0.4595941974318818
      ],
      "extensions": {
        "KHR_materials_unlit": {}
      },
      "name": "initialShadingGroup",
      "pbrMetallicRoughness": {
        "baseColorFactor": [
          0.0,
          0.0,
          0.0,
          1.0
        ],
        "metallicFactor": 0.0
      }
    },
    {
      "doubleSided": true,
      "emissiveFactor": [
        0.9270949324,
        0.9270949324,
        0.9270949324
      ],
      "emissiveTexture": {
        "index": 0
      },
      "extensions": {
        "KHR_materials_unlit": {}
      },
      "name": "lambert2SG",
      "pbrMetallicRoughness": {
        "baseColorFactor": [
          0.3233451981,
          0.3233451981,
          0.3233451981,
          1.0
        ],
        "baseColorTexture": {
          "index": 0
        },
        "metallicFactor": 0.0
      }
    },
    {
      "alphaMode": "BLEND",
      "extensions": {
        "KHR_materials_unlit": {}
      },
      "name": "lambert3SG",
      "pbrMetallicRoughness": {
        "baseColorFactor": [
          0.0,
          0.0,
          0.0,
          0.9181425421
        ],
        "metallicFactor": 0.0
      }
    },
    {
      "alphaMode": "BLEND",
      "doubleSided": true,
      "extensions": {
        "KHR_materials_unlit": {}
      },
      "name": "lambert4SG",
      "pbrMetallicRoughness": {
        "baseColorFactor": [
          0.4734816695999998,
          0.0950371921999999,
          1.0,
          0.06236269
        ],
        "metallicFactor": 0.0
      }
    }
  ],
  "meshes": [
    {
      "name": "Object_0",
      "primitives": [
        {
          "attributes": {
            "NORMAL": 1,
            "POSITION": 0,
            "TEXCOORD_0": 2
          },
          "indices": 3,
          "material": 0,
          "mode": 4
        }
      ]
    },
    {
      "name": "Object_1",
      "primitives": [
        {
          "attributes": {
            "NORMAL": 5,
            "POSITION": 4,
            "TEXCOORD_0": 6
          },
          "indices": 7,
          "material": 0,
          "mode": 4
        }
      ]
    },
    {
      "name": "Object_2",
      "primitives": [
        {
          "attributes": {
            "NORMAL": 9,
            "POSITION": 8,
            "TEXCOORD_0": 10
          },
          "indices": 11,
          "material": 1,
          "mode": 4
        }
      ]
    },
    {
      "name": "Object_3",
      "primitives": [
        {
          "attributes": {
            "NORMAL": 13,
            "POSITION": 12,
            "TEXCOORD_0": 14
          },
          "indices": 15,
          "material": 2,
          "mode": 4
        }
      ]
    },
    {
      "name": "Object_4",
      "primitives": [
        {
          "attributes": {
            "NORMAL": 17,
            "POSITION": 16,
            "TEXCOORD_0": 18
          },
          "indices": 19,
          "material": 2,
          "mode": 4
        }
      ]
    },
    {
      "name": "Object_5",
      "primitives": [
        {
          "attributes": {
            "NORMAL": 21,
            "POSITION": 20,
            "TEXCOORD_0": 22
          },
          "indices": 23,
          "material": 3,
          "mode": 4
        }
      ]
    },
    {
      "name": "Object_6",
      "primitives": [
        {
          "attributes": {
            "NORMAL": 25,
            "POSITION": 24,
            "TEXCOORD_0": 26
          },
          "indices": 27,
          "material": 4,
          "mode": 4
        }
      ]
    }
  ],
  "nodes": [
    {
      "children": [
        1
      ],
      "matrix": [
        1.0,
        0.0,
        0.0,
        0.0,
        0.0,
        2.220446049250313e-16,
        -1.0,
        0.0,
        0.0,
        1.0,
        2.220446049250313e-16,
        0.0,
        0.0,
        0.0,
        0.0,
        1.0
      ],
      "name": "Sketchfab_model"
    },
    {
      "children": [
        2,
        3,
        4,
        5,
        6,
        7,
        8
      ],
      "name": "Probnik2.obj.cleaner.materialmerger.gles"
    },
    {
      "mesh": 0,
      "name": "Object_2"
    },
    {
      "mesh": 1,
      "name": "Object_3"
    },
    {
      "mesh": 2,
      "name": "Object_4"
    },
    {
      "mesh": 3,
      "name": "Object_5"
    },
    {
      "mesh": 4,
      "name": "Object_6"
    },
    {
      "mesh": 5,
      "name": "Object_7"
    },
    {
      "mesh": 6,
      "name": "Object_8"
    }
  ],
  "samplers": [
    {
      "magFilter": 9729,
      "minFilter": 9987,
      "wrapS": 10497,
      "wrapT": 10497
    }
  ],
  "scene": 0,
  "scenes": [
    {
      "name": "Sketchfab_Scene",
      "nodes": [
        0
      ]
    }
  ],
  "textures": [
    {
      "sampler": 0,
      "source": 0
    }
  ]
}
